# xmcd
#
# Track frame offsets: 
#        150
#        14480
#        29113
#        44589
#        58675
#        72804
#        86390
#        99971
#        114061
#        127961
#        141955
#        154811
#        166857
#        181022
#        193809
#        206852
#        222752
#        236902
#        257689
#        275325
#        290095
#        305157
#        320602
#        333513
#        346600
#        360414
#        374051
#
# Disc length: 5166 seconds
#
# Revision: 0
# Processed by: cddbd v1.5.2PL0 Copyright (c) Steve Scherf et al.
# Submitted via: ExactAudioCopy v0.99pb4
#
DISCID=a4142c1b
DTITLE=Various Artist - The Bristol Sessions [CD2]
DYEAR=1927
DGENRE=Country
TTITLE0=Johnson Brothers - The Jealous Sweetheart (Take 1)
TTITLE1=Johnson Brothers - The Jealous Sweetheart (Take 2)
TTITLE2=Johnson Brothers - A Passing Policeman
TTITLE3=Johnson Brothers - Just A Message From Carolina
TTITLE4=Blind Alfred Reed - The Wreck Of The Virginian (Take 1)
TTITLE5=Blind Alfred Reed - The Wreck Of The Virginian (Take 2)
TTITLE6=Blind Alfred Reed - I Mean To Live For Jesus
TTITLE7=Blind Alfred Reed - You Must Unload
TTITLE8=Blind Alfred Reed - Walking In The Way With Jesus (Take 1)
TTITLE9=Blind Alfred Reed - Walking In The Way With Jesus (Take 2)
TTITLE10=Johnson Brothers With Tennessee Wildcats - Two Brothers Are W
TTITLE10=e
TTITLE11=Johnson Brothers With Tennessee Wildcats - The Soldier's Poor
TTITLE11=Little Boy
TTITLE12=Johnson Brothers - I Want To See My Mother (Ten Thousand Mile
TTITLE12=s Away)
TTITLE13=El Watson - Pot Licker Blues
TTITLE14=El Watson - Narrow Gauge Blues
TTITLE15=B. F. Shelton - Cold Penitentiary Blues
TTITLE16=B. F. Shelton - Oh Molly Dear
TTITLE17=B. F. Shelton - Pretty Polly
TTITLE18=B. F. Shelton - Darling Cora
TTITLE19=Alfred G. Karnes - Called To The Foreign Field
TTITLE20=Alfred G. Karnes - I Am Bound For The Promised Land
TTITLE21=Alfred G. Karnes - Where We'll Never Grow Old
TTITLE22=Alfred G. Karnes - When They Ring The Golden Bells
TTITLE23=Alfred G. Karnes - To The Work
TTITLE24=J. P. Nester - Train On The Island
TTITLE25=J. P. Nester - Black-Eyed Susie
TTITLE26=Bull Mountain Moonshiners - Johnny Goodwin
EXTD=
EXTT0=
EXTT1=
EXTT2=
EXTT3=
EXTT4=
EXTT5=
EXTT6=
EXTT7=
EXTT8=
EXTT9=
EXTT10=
EXTT11=
EXTT12=
EXTT13=
EXTT14=
EXTT15=
EXTT16=
EXTT17=
EXTT18=
EXTT19=
EXTT20=
EXTT21=
EXTT22=
EXTT23=
EXTT24=
EXTT25=
EXTT26=
PLAYORDER=
